<svg width="40" height="40" viewBox="0 0 40 40" fill="none" xmlns="http://www.w3.org/2000/svg">
<path d="M18.3199 0.53378C19.3199 -0.0324702 20.5949 -0.0349702 21.5699 0.53378L36.4999 8.95003C37.4337 9.47503 38.0587 10.5163 38.0499 11.5925V28.4675C38.0562 29.5888 37.3699 30.6525 36.3849 31.1675L21.5349 39.545C21.027 39.8257 20.4532 39.9653 19.8731 39.9492C19.293 39.9332 18.7278 39.7621 18.2362 39.4538L13.7799 36.8788C13.4762 36.6975 13.1349 36.5538 12.9199 36.26C13.1099 36.005 13.4474 35.9725 13.7224 35.86C14.3424 35.6625 14.9099 35.36 15.4799 35.04C15.6237 34.94 15.7999 34.9775 15.9374 35.0675L19.7374 37.265C20.0087 37.4213 20.2837 37.215 20.5162 37.0838L35.0974 28.855C35.2774 28.7675 35.3774 28.5775 35.3624 28.38V11.6675C35.3824 11.4425 35.2537 11.2375 35.0499 11.1463L20.2374 2.80503C20.1521 2.74599 20.0508 2.71426 19.947 2.71403C19.8432 2.71381 19.7418 2.74511 19.6562 2.80378L4.86492 11.1625C4.66492 11.2538 4.52742 11.4563 4.55242 11.6813V28.3938C4.53492 28.5913 4.63992 28.7775 4.82117 28.8625L8.77367 31.0938C9.51617 31.4938 10.4274 31.7188 11.2449 31.425C11.6027 31.2902 11.9106 31.0492 12.1276 30.7345C12.3445 30.4197 12.46 30.0461 12.4587 29.6638L12.4624 13.0513C12.4449 12.805 12.6774 12.6013 12.9162 12.6263H14.8162C15.0662 12.62 15.2624 12.885 15.2287 13.1325L15.2249 29.85C15.2262 31.335 14.6162 32.95 13.2424 33.6788C11.5499 34.5538 9.45742 34.37 7.78492 33.5288L3.53492 31.1788C2.53492 30.6788 1.86367 29.5988 1.86992 28.4788V11.6038C1.87407 11.0553 2.02485 10.5179 2.30662 10.0474C2.5884 9.5768 2.9909 9.19016 3.47242 8.92753L18.3199 0.53378ZM22.6249 12.2313C24.7837 12.1063 27.0949 12.1488 29.0374 13.2125C30.5412 14.0275 31.3749 15.7375 31.4024 17.41C31.3599 17.635 31.1249 17.76 30.9099 17.7438C30.2849 17.7425 29.6574 17.7525 29.0299 17.74C28.7637 17.75 28.6099 17.505 28.5762 17.27C28.3962 16.47 27.9599 15.6788 27.2074 15.2925C26.0524 14.7138 24.7124 14.7425 23.4524 14.755C22.5324 14.805 21.5437 14.8838 20.7649 15.4238C20.1649 15.8338 19.9849 16.6738 20.1987 17.3263C20.3987 17.805 20.9524 17.9588 21.4037 18.1013C24.0062 18.7813 26.7624 18.7263 29.3162 19.61C30.3724 19.975 31.4062 20.685 31.7687 21.7913C32.2412 23.2738 32.0349 25.0463 30.9812 26.2363C30.1262 27.2163 28.8812 27.7363 27.6374 28.0388C25.9837 28.4075 24.2687 28.4163 22.5899 28.2513C21.0112 28.0713 19.3687 27.6563 18.1499 26.5813C17.1074 25.6763 16.5999 24.2663 16.6499 22.9063C16.6624 22.6763 16.8912 22.5163 17.1124 22.535H18.9874C19.2399 22.5175 19.4249 22.735 19.4374 22.9725C19.5537 23.7225 19.8399 24.535 20.5049 24.9725C21.7874 25.8 23.3962 25.7425 24.8637 25.7663C26.0799 25.7125 27.4449 25.6963 28.4387 24.8913C28.9637 24.4325 29.1174 23.6663 28.9762 23.0063C28.8224 22.4488 28.2262 22.19 27.7262 22.0063C25.1574 21.1938 22.3699 21.4888 19.8262 20.5688C18.7937 20.2038 17.7949 19.5138 17.3987 18.4525C16.8449 16.9525 17.0987 15.0938 18.2649 13.9438C19.3899 12.8 21.0399 12.3588 22.6024 12.2013L22.6249 12.2313Z" fill="#8CC84B"/>
</svg>
