<svg width="40" height="40" viewBox="0 0 40 40" fill="none" xmlns="http://www.w3.org/2000/svg">
<g clip-path="url(#clip0_658_30587)">
<path d="M19.4403 0.000325407C17.8177 0.00786452 16.2683 0.146243 14.9049 0.387494C10.8885 1.09705 10.1593 2.58222 10.1593 5.32112V8.93838H19.6505V10.1441H10.1593H6.59736C3.83896 10.1441 1.42364 11.8021 0.668154 14.9561C-0.203287 18.5713 -0.24194 20.8272 0.668154 24.6021C1.34282 27.412 2.95401 29.414 5.7124 29.414H8.97568V25.0778C8.97568 21.945 11.6862 19.1817 14.9049 19.1817H24.385C27.0239 19.1817 29.1305 17.0089 29.1305 14.3587V5.32112C29.1305 2.74897 26.9606 0.816776 24.385 0.387494C22.7545 0.116086 21.0628 -0.00721382 19.4403 0.000325407ZM14.3075 2.90962C15.2879 2.90962 16.0885 3.7233 16.0885 4.72378C16.0885 5.72071 15.2879 6.52687 14.3075 6.52687C13.3236 6.52687 12.5266 5.72071 12.5266 4.72378C12.5266 3.7233 13.3236 2.90962 14.3075 2.90962Z" fill="url(#paint0_linear_658_30587)"/>
<path d="M30.3143 10.1442V14.3588C30.3143 17.6263 27.5441 20.3765 24.3851 20.3765H14.905C12.3082 20.3765 10.1594 22.5989 10.1594 25.1995V34.2371C10.1594 36.8092 12.3961 38.3222 14.905 39.0601C17.9094 39.9435 20.7904 40.1031 24.3851 39.0601C26.7745 38.3683 29.1307 36.976 29.1307 34.2371V30.6198H19.6506V29.4141H29.1307H33.8762C36.6346 29.4141 37.6625 27.49 38.6218 24.6021C39.6127 21.6291 39.5706 18.77 38.6218 14.9561C37.9401 12.2101 36.6381 10.1442 33.8762 10.1442H30.3143ZM24.9824 33.0313C25.9663 33.0313 26.7634 33.8375 26.7634 34.8344C26.7634 35.8349 25.9663 36.6486 24.9824 36.6486C24.0021 36.6486 23.2015 35.8349 23.2015 34.8344C23.2015 33.8375 24.0021 33.0313 24.9824 33.0313Z" fill="url(#paint1_linear_658_30587)"/>
</g>
<defs>
<linearGradient id="paint0_linear_658_30587" x1="-1.18189e-07" y1="-1.02668e-07" x2="21.8856" y2="18.6495" gradientUnits="userSpaceOnUse">
<stop stop-color="#5A9FD4"/>
<stop offset="1" stop-color="#306998"/>
</linearGradient>
<linearGradient id="paint1_linear_658_30587" x1="24.7543" y1="34.5303" x2="16.9026" y2="23.5277" gradientUnits="userSpaceOnUse">
<stop stop-color="#FFD43B"/>
<stop offset="1" stop-color="#FFE873"/>
</linearGradient>
<clipPath id="clip0_658_30587">
<rect width="39.646" height="40" fill="white"/>
</clipPath>
</defs>
</svg>
