<svg width="14" height="9" viewBox="0 0 14 9" fill="none" xmlns="http://www.w3.org/2000/svg">
<path d="M13.3574 2.04492V4.84766C13.3574 5.04818 13.2845 5.22135 13.1387 5.36719C13.002 5.50391 12.8333 5.57227 12.6328 5.57227H2.625L4.68945 7.62305C4.82617 7.75977 4.89453 7.92839 4.89453 8.12891C4.89453 8.32031 4.82617 8.48438 4.68945 8.62109C4.55273 8.75781 4.38411 8.82617 4.18359 8.82617C3.99219 8.82617 3.82812 8.75781 3.69141 8.62109L0.464844 5.39453C0.31901 5.2487 0.246094 5.07552 0.246094 4.875C0.246094 4.67448 0.31901 4.5013 0.464844 4.35547L3.69141 1.12891C3.82812 0.992188 3.99219 0.923828 4.18359 0.923828C4.38411 0.923828 4.55273 0.992188 4.68945 1.12891C4.82617 1.26562 4.89453 1.43424 4.89453 1.63477C4.89453 1.82617 4.82617 1.99023 4.68945 2.12695L2.625 4.17773H11.9355V2.04492C11.9355 1.8444 12.0039 1.67578 12.1406 1.53906C12.2773 1.40234 12.446 1.33398 12.6465 1.33398C12.8379 1.33398 13.002 1.40234 13.1387 1.53906C13.2845 1.67578 13.3574 1.8444 13.3574 2.04492Z" fill="#002E42"/>
</svg>
