<svg width="26" height="29" viewBox="0 0 26 29" fill="none" xmlns="http://www.w3.org/2000/svg">
<path fill-rule="evenodd" clip-rule="evenodd" d="M0.5 21.6487L13 28.8664L25.5 21.6487V7.21553L13 0L1.12532 6.8573C0.885789 6.99508 0.737409 7.25369 0.737409 7.52925C0.737409 7.80482 0.885789 8.06342 1.12532 8.20121L12.4595 14.7448V20.4617L0.5 13.5577V21.6487ZM12.9979 27.6179L1.57894 21.0255V15.4273L6.67714 18.3698L6.67617 18.3715L12.9569 22.045L19.5471 18.2422V10.6345L12.959 6.83174L6.93719 10.3081L2.11947 7.52713L13 1.2464L24.4168 7.84085V21.0255L12.9979 27.6179ZM8.01708 10.9315L13 13.8079L17.9416 10.9538L12.959 8.07814L8.01708 10.9315ZM18.4682 11.8966L13.5405 14.7427V20.4622L18.4682 17.619V11.8966Z" fill="#002E42"/>
</svg>
