<svg width="13" height="13" viewBox="0 0 13 13" fill="none" xmlns="http://www.w3.org/2000/svg">
	<path
		d="M6.5 0.5C3.17188 0.5 0.5 3.19531 0.5 6.5C0.5 9.82812 3.17188 12.5 6.5 12.5C9.80469 12.5 12.5 9.82812 12.5 6.5C12.5 3.19531 9.80469 0.5 6.5 0.5ZM6.5 11.375C3.80469 11.375 1.625 9.19531 1.625 6.5C1.625 3.82812 3.80469 1.625 6.5 1.625C9.17188 1.625 11.375 3.82812 11.375 6.5C11.375 9.19531 9.17188 11.375 6.5 11.375ZM7.4375 8.375H7.0625V6.3125C7.0625 6.00781 6.80469 5.75 6.5 5.75H5.75C5.42188 5.75 5.1875 6.00781 5.1875 6.3125C5.1875 6.64062 5.42188 6.875 5.75 6.875H5.9375V8.375H5.5625C5.23438 8.375 5 8.63281 5 8.9375C5 9.26562 5.23438 9.5 5.5625 9.5H7.4375C7.74219 9.5 8 9.26562 8 8.9375C8 8.63281 7.74219 8.375 7.4375 8.375ZM6.5 5C6.89844 5 7.25 4.67188 7.25 4.25C7.25 3.85156 6.89844 3.5 6.5 3.5C6.07812 3.5 5.75 3.85156 5.75 4.25C5.75 4.67188 6.07812 5 6.5 5Z"
		fill="#5D5F65" />
</svg>