<svg width="14" height="13" viewBox="0 0 14 13" fill="none" xmlns="http://www.w3.org/2000/svg">
<path d="M7.74998 8.25V4.5C7.74998 4.29688 7.67576 4.12109 7.52732 3.97266C7.37888 3.82422 7.2031 3.75 6.99998 3.75C6.79685 3.75 6.62107 3.82422 6.47263 3.97266C6.3242 4.12109 6.24998 4.29688 6.24998 4.5V8.25C6.24998 8.45312 6.3242 8.62891 6.47263 8.77734C6.62107 8.92578 6.79685 9 6.99998 9C7.2031 9 7.37888 8.92578 7.52732 8.77734C7.67576 8.62891 7.74998 8.45312 7.74998 8.25ZM6.99998 11.25C7.2031 11.25 7.37888 11.1797 7.52732 11.0391C7.67576 10.8906 7.74998 10.7109 7.74998 10.5C7.74998 10.2969 7.67576 10.1211 7.52732 9.97266C7.37888 9.82422 7.2031 9.75 6.99998 9.75C6.79685 9.75 6.62107 9.82422 6.47263 9.97266C6.3242 10.1211 6.24998 10.2969 6.24998 10.5C6.24998 10.7109 6.3242 10.8906 6.47263 11.0391C6.62107 11.1797 6.79685 11.25 6.99998 11.25ZM12.9179 11.6367C13.0429 11.8945 13.0351 12.1445 12.8945 12.3867C12.7539 12.6289 12.5508 12.75 12.2851 12.75H1.71482C1.4492 12.75 1.24607 12.6289 1.10545 12.3867C0.964822 12.1445 0.95701 11.8945 1.08201 11.6367L6.36717 1.14844C6.49998 0.882812 6.71092 0.75 6.99998 0.75C7.28904 0.75 7.49998 0.882812 7.63279 1.14844L12.9179 11.6367Z" fill="#F57C00"/>
</svg>
